<svg width="15" height="13" viewBox="0 0 15 13" fill="none" xmlns="http://www.w3.org/2000/svg">
<path d="M7.5 8.50573L2.075 12.3807C1.74167 12.6141 1.396 12.6431 1.038 12.4677C0.68 12.2924 0.500667 11.9967 0.5 11.5807C0.5 11.4141 0.537667 11.2557 0.613 11.1057C0.688333 10.9557 0.792334 10.8391 0.925 10.7557L7.5 6.05573L14.075 10.7557C14.2083 10.8391 14.3127 10.9557 14.388 11.1057C14.4633 11.2557 14.5007 11.4141 14.5 11.5807C14.5 11.9807 14.321 12.2724 13.963 12.4557C13.605 12.6391 13.259 12.6141 12.925 12.3807L7.5 8.50573ZM7.5 2.55573L2.075 6.43073C1.74167 6.66406 1.396 6.6934 1.038 6.51873C0.68 6.34406 0.500667 6.04773 0.5 5.62973C0.5 5.46306 0.537667 5.30473 0.613 5.15473C0.688333 5.00473 0.792334 4.88806 0.925 4.80473L7.5 0.105728L14.075 4.80573C14.2083 4.88906 14.3127 5.00573 14.388 5.15573C14.4633 5.30573 14.5007 5.46406 14.5 5.63073C14.5 6.03073 14.321 6.3224 13.963 6.50573C13.605 6.68906 13.259 6.66406 12.925 6.43073L7.5 2.55573Z" fill="white"/>
</svg>
