<svg width="20" height="22" viewBox="0 0 20 22" fill="none" xmlns="http://www.w3.org/2000/svg">
<path d="M1.67896 19.8253C2.85874 21.246 5.05314 21.246 9.44391 21.246H10.1518C14.5425 21.246 16.7379 21.246 17.9177 19.8253M1.67896 19.8253C0.499175 18.4037 0.904235 16.2466 1.71337 11.9306C2.28851 8.86314 2.5756 7.32844 3.66788 6.42197M17.9177 19.8253C19.0975 18.4037 18.6924 16.2466 17.8833 11.9306C17.3082 8.86314 17.0201 7.32844 15.9278 6.42197M15.9278 6.42197C14.8365 5.5155 13.2743 5.5155 10.1528 5.5155H9.44292C6.32141 5.5155 4.76016 5.5155 3.66788 6.42197" stroke="black" stroke-width="1.5"/>
<path d="M6.84839 5.5155V4.53235C6.84839 3.7501 7.15913 2.99989 7.71227 2.44676C8.2654 1.89363 9.0156 1.58289 9.79785 1.58289C10.5801 1.58289 11.3303 1.89363 11.8834 2.44676C12.4366 2.99989 12.7473 3.7501 12.7473 4.53235V5.5155" stroke="black" stroke-width="1.5" stroke-linecap="round"/>
</svg>
