<svg width="17" height="11" viewBox="0 0 17 11" fill="none" xmlns="http://www.w3.org/2000/svg">
<path d="M1.04103 10.8209C0.895355 10.8209 0.773615 10.7713 0.675813 10.6721C0.57801 10.5729 0.528767 10.4509 0.528083 10.3059C0.527399 10.1609 0.576642 10.0391 0.675813 9.94064C0.774983 9.84216 0.896723 9.79325 1.04103 9.79394H16.4295C16.5752 9.79394 16.6969 9.84318 16.7947 9.94167C16.8932 10.0402 16.9425 10.1622 16.9425 10.3079C16.9425 10.4536 16.8932 10.5753 16.7947 10.6731C16.6963 10.7709 16.5745 10.8198 16.4295 10.8198L1.04103 10.8209ZM1.04103 5.92732C0.895355 5.92732 0.773615 5.87808 0.675813 5.77959C0.57801 5.68111 0.528767 5.55903 0.528083 5.41335C0.527399 5.26767 0.576642 5.14593 0.675813 5.04813C0.774983 4.95033 0.896723 4.90142 1.04103 4.90142H16.4295C16.5752 4.90142 16.6969 4.95067 16.7947 5.04915C16.8925 5.14764 16.9418 5.26972 16.9425 5.4154C16.9432 5.56108 16.8939 5.68282 16.7947 5.78062C16.6956 5.87842 16.5738 5.92732 16.4295 5.92732H1.04103ZM1.04103 1.03378C0.895355 1.03378 0.773615 0.984883 0.675813 0.887081C0.577326 0.788594 0.528083 0.666513 0.528083 0.520835C0.528083 0.375157 0.577326 0.253417 0.675813 0.155615C0.774299 0.0578125 0.896039 0.00891113 1.04103 0.00891113H16.4295C16.5752 0.00891113 16.6969 0.0581543 16.7947 0.156641C16.8925 0.255127 16.9418 0.376525 16.9425 0.520835C16.9432 0.665145 16.8939 0.786885 16.7947 0.886055C16.6956 0.985225 16.5738 1.03447 16.4295 1.03378H1.04103Z" fill="black"/>
</svg>
