<svg width="21" height="22" viewBox="0 0 21 22" fill="none" xmlns="http://www.w3.org/2000/svg">
<path d="M10.3261 13.1501C15.9891 13.1501 20.5851 15.2977 20.5851 17.9377V21.3573H0.0671387V17.9377C0.0671387 15.2977 4.66317 13.1501 10.3261 13.1501ZM19.2173 17.9377C19.2173 16.05 15.2368 14.518 10.3261 14.518C5.41549 14.518 1.435 16.05 1.435 17.9377V19.9895H19.2173V17.9377ZM10.3261 0.839355C11.5959 0.839355 12.8136 1.34375 13.7114 2.24159C14.6093 3.13943 15.1137 4.35715 15.1137 5.62689C15.1137 6.89662 14.6093 8.11434 13.7114 9.01218C12.8136 9.91002 11.5959 10.4144 10.3261 10.4144C9.0564 10.4144 7.83867 9.91002 6.94084 9.01218C6.043 8.11434 5.5386 6.89662 5.5386 5.62689C5.5386 4.35715 6.043 3.13943 6.94084 2.24159C7.83867 1.34375 9.0564 0.839355 10.3261 0.839355ZM10.3261 2.20722C9.41918 2.20722 8.54937 2.56751 7.90806 3.20882C7.26675 3.85013 6.90647 4.71993 6.90647 5.62689C6.90647 6.53384 7.26675 7.40364 7.90806 8.04495C8.54937 8.68626 9.41918 9.04655 10.3261 9.04655C11.2331 9.04655 12.1029 8.68626 12.7442 8.04495C13.3855 7.40364 13.7458 6.53384 13.7458 5.62689C13.7458 4.71993 13.3855 3.85013 12.7442 3.20882C12.1029 2.56751 11.2331 2.20722 10.3261 2.20722Z" fill="black"/>
</svg>
