<svg width="16" height="17" viewBox="0 0 16 17" fill="none" xmlns="http://www.w3.org/2000/svg">
<path d="M13.9999 14.5L11.1046 11.6047M11.1046 11.6047C11.5998 11.1094 11.9927 10.5215 12.2607 9.87438C12.5287 9.22729 12.6667 8.53375 12.6667 7.83335C12.6667 7.13295 12.5287 6.4394 12.2607 5.79232C11.9927 5.14523 11.5998 4.55727 11.1046 4.06202C10.6093 3.56676 10.0213 3.1739 9.37426 2.90586C8.72717 2.63783 8.03363 2.49988 7.33323 2.49988C6.63283 2.49988 5.93928 2.63783 5.2922 2.90586C4.64511 3.1739 4.05715 3.56676 3.56189 4.06202C2.56167 5.06224 1.99976 6.41882 1.99976 7.83335C1.99976 9.24787 2.56167 10.6045 3.56189 11.6047C4.56211 12.6049 5.9187 13.1668 7.33323 13.1668C8.74775 13.1668 10.1043 12.6049 11.1046 11.6047Z" stroke="#797979" stroke-width="1.5" stroke-linecap="round" stroke-linejoin="round"/>
</svg>
